<mxfile host="65bd71144e" scale="10" border="0">
    <diagram id="Jf5RHwIwj3P055EiEldz" name="第 1 页">
        <mxGraphModel dx="1786" dy="1011" grid="1" gridSize="10" guides="1" tooltips="1" connect="1" arrows="1" fold="1" page="1" pageScale="1" pageWidth="1169" pageHeight="1654" math="0" shadow="0">
            <root>
                <mxCell id="0"/>
                <mxCell id="1" parent="0"/>
                <mxCell id="464" value="" style="rounded=0;whiteSpace=wrap;html=1;strokeColor=#DAE8FC;fillColor=#DAE8FC;" parent="1" vertex="1">
                    <mxGeometry x="40" y="1670" width="600" height="120" as="geometry"/>
                </mxCell>
                <mxCell id="465" value="" style="rounded=0;whiteSpace=wrap;html=1;strokeColor=#DAE8FC;fillColor=#DAE8FC;" parent="1" vertex="1">
                    <mxGeometry x="280" y="1630" width="360" height="40" as="geometry"/>
                </mxCell>
                <mxCell id="466" value="" style="rounded=0;whiteSpace=wrap;html=1;strokeColor=#F8CECC;fillColor=#F8CECC;" parent="1" vertex="1">
                    <mxGeometry x="40" y="1590" width="200" height="40" as="geometry"/>
                </mxCell>
                <mxCell id="467" value="" style="rounded=0;whiteSpace=wrap;html=1;strokeColor=#F8CECC;fillColor=#f8cecc;" parent="1" vertex="1">
                    <mxGeometry x="40" y="1470" width="600" height="120" as="geometry"/>
                </mxCell>
                <mxCell id="468" value="" style="whiteSpace=wrap;html=1;aspect=fixed;fillColor=#d5e8d4;strokeColor=#82b366;" parent="1" vertex="1">
                    <mxGeometry x="280" y="1590" width="40" height="40" as="geometry"/>
                </mxCell>
                <mxCell id="469" value="" style="whiteSpace=wrap;html=1;aspect=fixed;" parent="1" vertex="1">
                    <mxGeometry x="320" y="1590" width="40" height="40" as="geometry"/>
                </mxCell>
                <mxCell id="470" value="" style="whiteSpace=wrap;html=1;aspect=fixed;" parent="1" vertex="1">
                    <mxGeometry x="360" y="1590" width="40" height="40" as="geometry"/>
                </mxCell>
                <mxCell id="471" value="" style="whiteSpace=wrap;html=1;aspect=fixed;" parent="1" vertex="1">
                    <mxGeometry x="400" y="1590" width="40" height="40" as="geometry"/>
                </mxCell>
                <mxCell id="472" value="" style="whiteSpace=wrap;html=1;aspect=fixed;" parent="1" vertex="1">
                    <mxGeometry x="440" y="1590" width="40" height="40" as="geometry"/>
                </mxCell>
                <mxCell id="473" value="" style="whiteSpace=wrap;html=1;aspect=fixed;" parent="1" vertex="1">
                    <mxGeometry x="480" y="1590" width="40" height="40" as="geometry"/>
                </mxCell>
                <mxCell id="474" value="" style="whiteSpace=wrap;html=1;aspect=fixed;" parent="1" vertex="1">
                    <mxGeometry x="520" y="1590" width="40" height="40" as="geometry"/>
                </mxCell>
                <mxCell id="475" value="" style="whiteSpace=wrap;html=1;aspect=fixed;" parent="1" vertex="1">
                    <mxGeometry x="560" y="1590" width="40" height="40" as="geometry"/>
                </mxCell>
                <mxCell id="476" value="" style="whiteSpace=wrap;html=1;aspect=fixed;" parent="1" vertex="1">
                    <mxGeometry x="600" y="1590" width="40" height="40" as="geometry"/>
                </mxCell>
                <mxCell id="477" value="" style="whiteSpace=wrap;html=1;aspect=fixed;" parent="1" vertex="1">
                    <mxGeometry x="120" y="1630" width="40" height="40" as="geometry"/>
                </mxCell>
                <mxCell id="478" value="" style="whiteSpace=wrap;html=1;aspect=fixed;" parent="1" vertex="1">
                    <mxGeometry x="160" y="1630" width="40" height="40" as="geometry"/>
                </mxCell>
                <mxCell id="479" value="" style="edgeStyle=none;html=1;" parent="1" source="480" target="464" edge="1">
                    <mxGeometry relative="1" as="geometry"/>
                </mxCell>
                <mxCell id="480" value="" style="whiteSpace=wrap;html=1;aspect=fixed;" parent="1" vertex="1">
                    <mxGeometry x="200" y="1630" width="40" height="40" as="geometry"/>
                </mxCell>
                <mxCell id="481" value="" style="whiteSpace=wrap;html=1;aspect=fixed;" parent="1" vertex="1">
                    <mxGeometry x="40" y="1630" width="40" height="40" as="geometry"/>
                </mxCell>
                <mxCell id="482" value="" style="whiteSpace=wrap;html=1;aspect=fixed;" parent="1" vertex="1">
                    <mxGeometry x="80" y="1630" width="40" height="40" as="geometry"/>
                </mxCell>
                <mxCell id="483" value="" style="whiteSpace=wrap;html=1;aspect=fixed;" parent="1" vertex="1">
                    <mxGeometry x="120" y="1630" width="40" height="40" as="geometry"/>
                </mxCell>
                <mxCell id="484" style="edgeStyle=none;html=1;entryX=0;entryY=0.5;entryDx=0;entryDy=0;fontFamily=Times New Roman;fontSize=22;rounded=0;" parent="1" source="485" target="555" edge="1">
                    <mxGeometry relative="1" as="geometry">
                        <Array as="points">
                            <mxPoint x="260" y="1885"/>
                        </Array>
                    </mxGeometry>
                </mxCell>
                <mxCell id="485" value="&lt;font face=&quot;Times New Roman&quot;&gt;now&lt;br&gt;2&lt;br&gt;&lt;/font&gt;" style="whiteSpace=wrap;html=1;aspect=fixed;" parent="1" vertex="1">
                    <mxGeometry x="240" y="1630" width="40" height="40" as="geometry"/>
                </mxCell>
                <mxCell id="489" value="" style="whiteSpace=wrap;html=1;aspect=fixed;fillColor=#d5e8d4;strokeColor=#82b366;" parent="1" vertex="1">
                    <mxGeometry x="320" y="1590" width="40" height="40" as="geometry"/>
                </mxCell>
                <mxCell id="490" style="edgeStyle=none;html=1;fontFamily=Times New Roman;fontSize=22;" parent="1" source="492" target="485" edge="1">
                    <mxGeometry relative="1" as="geometry"/>
                </mxCell>
                <mxCell id="491" style="edgeStyle=none;html=1;entryX=0;entryY=0.5;entryDx=0;entryDy=0;fontFamily=Times New Roman;fontSize=22;exitX=0.018;exitY=0.446;exitDx=0;exitDy=0;exitPerimeter=0;" parent="1" source="468" target="465" edge="1">
                    <mxGeometry relative="1" as="geometry">
                        <Array as="points">
                            <mxPoint x="300" y="1630"/>
                        </Array>
                    </mxGeometry>
                </mxCell>
                <mxCell id="492" value="&lt;font face=&quot;Times New Roman&quot;&gt;up&lt;br&gt;2&lt;/font&gt;" style="whiteSpace=wrap;html=1;aspect=fixed;fillColor=#82B366;strokeColor=#82B366;" parent="1" vertex="1">
                    <mxGeometry x="240" y="1590" width="40" height="40" as="geometry"/>
                </mxCell>
                <mxCell id="493" value="" style="whiteSpace=wrap;html=1;aspect=fixed;fillColor=#d5e8d4;strokeColor=#82b366;" parent="1" vertex="1">
                    <mxGeometry x="360" y="1590" width="40" height="40" as="geometry"/>
                </mxCell>
                <mxCell id="494" value="" style="whiteSpace=wrap;html=1;aspect=fixed;fillColor=#d5e8d4;strokeColor=#82b366;" parent="1" vertex="1">
                    <mxGeometry x="400" y="1590" width="40" height="40" as="geometry"/>
                </mxCell>
                <mxCell id="495" value="" style="whiteSpace=wrap;html=1;aspect=fixed;fillColor=#d5e8d4;strokeColor=#82b366;" parent="1" vertex="1">
                    <mxGeometry x="400" y="1590" width="40" height="40" as="geometry"/>
                </mxCell>
                <mxCell id="496" value="" style="whiteSpace=wrap;html=1;aspect=fixed;fillColor=#d5e8d4;strokeColor=#82b366;" parent="1" vertex="1">
                    <mxGeometry x="360" y="1590" width="40" height="40" as="geometry"/>
                </mxCell>
                <mxCell id="497" value="" style="whiteSpace=wrap;html=1;aspect=fixed;fillColor=#d5e8d4;strokeColor=#82b366;" parent="1" vertex="1">
                    <mxGeometry x="320" y="1590" width="40" height="40" as="geometry"/>
                </mxCell>
                <mxCell id="498" value="" style="whiteSpace=wrap;html=1;aspect=fixed;fillColor=#d5e8d4;strokeColor=#82b366;" parent="1" vertex="1">
                    <mxGeometry x="480" y="1590" width="40" height="40" as="geometry"/>
                </mxCell>
                <mxCell id="499" value="" style="whiteSpace=wrap;html=1;aspect=fixed;fillColor=#d5e8d4;strokeColor=#82b366;" parent="1" vertex="1">
                    <mxGeometry x="440" y="1590" width="40" height="40" as="geometry"/>
                </mxCell>
                <mxCell id="500" style="edgeStyle=none;html=1;entryX=0.5;entryY=0;entryDx=0;entryDy=0;fontFamily=宋体;fontSource=https%3A%2F%2Ffonts.googleapis.com%2Fcss%3Ffamily%3D%25E5%25AE%258B%25E4%25BD%2593;fontSize=15;" parent="1" source="501" target="509" edge="1">
                    <mxGeometry relative="1" as="geometry">
                        <Array as="points">
                            <mxPoint x="705" y="1610"/>
                        </Array>
                    </mxGeometry>
                </mxCell>
                <mxCell id="501" value="" style="whiteSpace=wrap;html=1;aspect=fixed;fillColor=#d5e8d4;strokeColor=#82b366;" parent="1" vertex="1">
                    <mxGeometry x="600" y="1590" width="40" height="40" as="geometry"/>
                </mxCell>
                <mxCell id="502" value="" style="whiteSpace=wrap;html=1;aspect=fixed;fillColor=#d5e8d4;strokeColor=#82b366;" parent="1" vertex="1">
                    <mxGeometry x="560" y="1590" width="40" height="40" as="geometry"/>
                </mxCell>
                <mxCell id="503" value="" style="whiteSpace=wrap;html=1;aspect=fixed;fillColor=#d5e8d4;strokeColor=#82b366;" parent="1" vertex="1">
                    <mxGeometry x="520" y="1590" width="40" height="40" as="geometry"/>
                </mxCell>
                <mxCell id="504" value="" style="whiteSpace=wrap;html=1;aspect=fixed;fillColor=#d5e8d4;strokeColor=#82b366;" parent="1" vertex="1">
                    <mxGeometry x="80" y="1630" width="40" height="40" as="geometry"/>
                </mxCell>
                <mxCell id="505" value="" style="whiteSpace=wrap;html=1;aspect=fixed;fillColor=#d5e8d4;strokeColor=#82b366;" parent="1" vertex="1">
                    <mxGeometry x="40" y="1630" width="40" height="40" as="geometry"/>
                </mxCell>
                <mxCell id="565" style="edgeStyle=none;rounded=0;html=1;entryX=0;entryY=0.5;entryDx=0;entryDy=0;fontFamily=Times New Roman;fontSize=18;" parent="1" source="506" target="554" edge="1">
                    <mxGeometry relative="1" as="geometry">
                        <Array as="points">
                            <mxPoint x="220" y="1855"/>
                        </Array>
                    </mxGeometry>
                </mxCell>
                <mxCell id="567" style="edgeStyle=none;rounded=0;html=1;entryX=0.5;entryY=0;entryDx=0;entryDy=0;fontFamily=Times New Roman;fontSize=18;" parent="1" source="506" target="510" edge="1">
                    <mxGeometry relative="1" as="geometry">
                        <Array as="points">
                            <mxPoint x="220" y="1820"/>
                            <mxPoint x="110" y="1820"/>
                        </Array>
                    </mxGeometry>
                </mxCell>
                <mxCell id="506" value="&lt;font face=&quot;Times New Roman&quot;&gt;left&lt;br&gt;1&lt;/font&gt;" style="whiteSpace=wrap;html=1;aspect=fixed;fillColor=#d5e8d4;strokeColor=#82b366;" parent="1" vertex="1">
                    <mxGeometry x="200" y="1630" width="40" height="40" as="geometry"/>
                </mxCell>
                <mxCell id="507" value="" style="whiteSpace=wrap;html=1;aspect=fixed;fillColor=#d5e8d4;strokeColor=#82b366;" parent="1" vertex="1">
                    <mxGeometry x="160" y="1630" width="40" height="40" as="geometry"/>
                </mxCell>
                <mxCell id="508" value="" style="whiteSpace=wrap;html=1;aspect=fixed;fillColor=#d5e8d4;strokeColor=#82b366;" parent="1" vertex="1">
                    <mxGeometry x="120" y="1630" width="40" height="40" as="geometry"/>
                </mxCell>
                <mxCell id="509" value="&lt;p class=&quot;MsoNormal&quot;&gt;&lt;font face=&quot;宋体&quot; data-font-src=&quot;https://fonts.googleapis.com/css?family=%E5%AE%8B%E4%BD%93&quot; style=&quot;font-size: 22px&quot;&gt;行寄存器数组&lt;/font&gt;&lt;br&gt;&lt;/p&gt;" style="text;html=1;strokeColor=none;fillColor=none;align=center;verticalAlign=middle;whiteSpace=wrap;rounded=0;" parent="1" vertex="1">
                    <mxGeometry x="650" y="1670" width="110" height="70" as="geometry"/>
                </mxCell>
                <mxCell id="510" value="&lt;font face=&quot;Times New Roman&quot;&gt;3&lt;/font&gt;" style="rounded=0;whiteSpace=wrap;html=1;fontFamily=宋体;fontSource=https%3A%2F%2Ffonts.googleapis.com%2Fcss%3Ffamily%3D%25E5%25AE%258B%25E4%25BD%2593;fontSize=15;" parent="1" vertex="1">
                    <mxGeometry x="80" y="1840" width="60" height="30" as="geometry"/>
                </mxCell>
                <mxCell id="511" value="&lt;font face=&quot;Times New Roman&quot;&gt;4&lt;/font&gt;" style="rounded=0;whiteSpace=wrap;html=1;fontFamily=宋体;fontSource=https%3A%2F%2Ffonts.googleapis.com%2Fcss%3Ffamily%3D%25E5%25AE%258B%25E4%25BD%2593;fontSize=15;" parent="1" vertex="1">
                    <mxGeometry x="80" y="1870" width="60" height="30" as="geometry"/>
                </mxCell>
                <mxCell id="512" value="&lt;span style=&quot;font-family: &amp;#34;times new roman&amp;#34;&quot;&gt;5&lt;/span&gt;" style="rounded=0;whiteSpace=wrap;html=1;fontFamily=宋体;fontSource=https%3A%2F%2Ffonts.googleapis.com%2Fcss%3Ffamily%3D%25E5%25AE%258B%25E4%25BD%2593;fontSize=15;" parent="1" vertex="1">
                    <mxGeometry x="80" y="1900" width="60" height="30" as="geometry"/>
                </mxCell>
                <mxCell id="517" value="&lt;font face=&quot;Times New Roman&quot;&gt;...&lt;/font&gt;" style="rounded=0;whiteSpace=wrap;html=1;fontFamily=宋体;fontSource=https%3A%2F%2Ffonts.googleapis.com%2Fcss%3Ffamily%3D%25E5%25AE%258B%25E4%25BD%2593;fontSize=15;" parent="1" vertex="1">
                    <mxGeometry x="80" y="1930" width="60" height="30" as="geometry"/>
                </mxCell>
                <mxCell id="518" value="" style="rounded=0;whiteSpace=wrap;html=1;fontFamily=宋体;fontSource=https%3A%2F%2Ffonts.googleapis.com%2Fcss%3Ffamily%3D%25E5%25AE%258B%25E4%25BD%2593;fontSize=15;fillColor=#e1d5e7;strokeColor=#9673a6;" parent="1" vertex="1">
                    <mxGeometry x="360" y="1840" width="60" height="30" as="geometry"/>
                </mxCell>
                <mxCell id="519" value="" style="rounded=0;whiteSpace=wrap;html=1;fontFamily=宋体;fontSource=https%3A%2F%2Ffonts.googleapis.com%2Fcss%3Ffamily%3D%25E5%25AE%258B%25E4%25BD%2593;fontSize=15;fillColor=#ffe6cc;strokeColor=#d79b00;" parent="1" vertex="1">
                    <mxGeometry x="360" y="1870" width="60" height="30" as="geometry"/>
                </mxCell>
                <mxCell id="520" value="" style="rounded=0;whiteSpace=wrap;html=1;fontFamily=宋体;fontSource=https%3A%2F%2Ffonts.googleapis.com%2Fcss%3Ffamily%3D%25E5%25AE%258B%25E4%25BD%2593;fontSize=15;" parent="1" vertex="1">
                    <mxGeometry x="360" y="1900" width="60" height="30" as="geometry"/>
                </mxCell>
                <mxCell id="521" value="" style="rounded=0;whiteSpace=wrap;html=1;fontFamily=宋体;fontSource=https%3A%2F%2Ffonts.googleapis.com%2Fcss%3Ffamily%3D%25E5%25AE%258B%25E4%25BD%2593;fontSize=15;" parent="1" vertex="1">
                    <mxGeometry x="360" y="1930" width="60" height="30" as="geometry"/>
                </mxCell>
                <mxCell id="526" value="" style="rounded=0;whiteSpace=wrap;html=1;fontFamily=宋体;fontSource=https%3A%2F%2Ffonts.googleapis.com%2Fcss%3Ffamily%3D%25E5%25AE%258B%25E4%25BD%2593;fontSize=15;fillColor=#e1d5e7;strokeColor=#9673a6;" parent="1" vertex="1">
                    <mxGeometry x="420" y="1840" width="60" height="30" as="geometry"/>
                </mxCell>
                <mxCell id="527" value="" style="rounded=0;whiteSpace=wrap;html=1;fontFamily=宋体;fontSource=https%3A%2F%2Ffonts.googleapis.com%2Fcss%3Ffamily%3D%25E5%25AE%258B%25E4%25BD%2593;fontSize=15;fillColor=#ffe6cc;strokeColor=#d79b00;" parent="1" vertex="1">
                    <mxGeometry x="420" y="1870" width="60" height="30" as="geometry"/>
                </mxCell>
                <mxCell id="528" value="" style="rounded=0;whiteSpace=wrap;html=1;fontFamily=宋体;fontSource=https%3A%2F%2Ffonts.googleapis.com%2Fcss%3Ffamily%3D%25E5%25AE%258B%25E4%25BD%2593;fontSize=15;" parent="1" vertex="1">
                    <mxGeometry x="420" y="1900" width="60" height="30" as="geometry"/>
                </mxCell>
                <mxCell id="529" value="" style="rounded=0;whiteSpace=wrap;html=1;fontFamily=宋体;fontSource=https%3A%2F%2Ffonts.googleapis.com%2Fcss%3Ffamily%3D%25E5%25AE%258B%25E4%25BD%2593;fontSize=15;" parent="1" vertex="1">
                    <mxGeometry x="420" y="1930" width="60" height="30" as="geometry"/>
                </mxCell>
                <mxCell id="534" value="" style="rounded=0;whiteSpace=wrap;html=1;fontFamily=宋体;fontSource=https%3A%2F%2Ffonts.googleapis.com%2Fcss%3Ffamily%3D%25E5%25AE%258B%25E4%25BD%2593;fontSize=15;fillColor=#e1d5e7;strokeColor=#9673a6;" parent="1" vertex="1">
                    <mxGeometry x="480" y="1840" width="60" height="30" as="geometry"/>
                </mxCell>
                <mxCell id="535" value="" style="rounded=0;whiteSpace=wrap;html=1;fontFamily=宋体;fontSource=https%3A%2F%2Ffonts.googleapis.com%2Fcss%3Ffamily%3D%25E5%25AE%258B%25E4%25BD%2593;fontSize=15;fillColor=#ffe6cc;strokeColor=#d79b00;" parent="1" vertex="1">
                    <mxGeometry x="480" y="1870" width="60" height="30" as="geometry"/>
                </mxCell>
                <mxCell id="536" value="" style="rounded=0;whiteSpace=wrap;html=1;fontFamily=宋体;fontSource=https%3A%2F%2Ffonts.googleapis.com%2Fcss%3Ffamily%3D%25E5%25AE%258B%25E4%25BD%2593;fontSize=15;" parent="1" vertex="1">
                    <mxGeometry x="480" y="1900" width="60" height="30" as="geometry"/>
                </mxCell>
                <mxCell id="537" value="" style="rounded=0;whiteSpace=wrap;html=1;fontFamily=宋体;fontSource=https%3A%2F%2Ffonts.googleapis.com%2Fcss%3Ffamily%3D%25E5%25AE%258B%25E4%25BD%2593;fontSize=15;" parent="1" vertex="1">
                    <mxGeometry x="480" y="1930" width="60" height="30" as="geometry"/>
                </mxCell>
                <mxCell id="542" value="" style="rounded=0;whiteSpace=wrap;html=1;fontFamily=宋体;fontSource=https%3A%2F%2Ffonts.googleapis.com%2Fcss%3Ffamily%3D%25E5%25AE%258B%25E4%25BD%2593;fontSize=15;fillColor=#e1d5e7;strokeColor=#9673a6;" parent="1" vertex="1">
                    <mxGeometry x="540" y="1840" width="60" height="30" as="geometry"/>
                </mxCell>
                <mxCell id="543" value="" style="rounded=0;whiteSpace=wrap;html=1;fontFamily=宋体;fontSource=https%3A%2F%2Ffonts.googleapis.com%2Fcss%3Ffamily%3D%25E5%25AE%258B%25E4%25BD%2593;fontSize=15;fillColor=#ffe6cc;strokeColor=#d79b00;" parent="1" vertex="1">
                    <mxGeometry x="540" y="1870" width="60" height="30" as="geometry"/>
                </mxCell>
                <mxCell id="544" value="" style="rounded=0;whiteSpace=wrap;html=1;fontFamily=宋体;fontSource=https%3A%2F%2Ffonts.googleapis.com%2Fcss%3Ffamily%3D%25E5%25AE%258B%25E4%25BD%2593;fontSize=15;" parent="1" vertex="1">
                    <mxGeometry x="540" y="1900" width="60" height="30" as="geometry"/>
                </mxCell>
                <mxCell id="545" value="" style="rounded=0;whiteSpace=wrap;html=1;fontFamily=宋体;fontSource=https%3A%2F%2Ffonts.googleapis.com%2Fcss%3Ffamily%3D%25E5%25AE%258B%25E4%25BD%2593;fontSize=15;" parent="1" vertex="1">
                    <mxGeometry x="540" y="1930" width="60" height="30" as="geometry"/>
                </mxCell>
                <mxCell id="550" value="&lt;font data-font-src=&quot;https://fonts.googleapis.com/css?family=%E5%AE%8B%E4%BD%93&quot; style=&quot;font-size: 15px&quot; face=&quot;Times New Roman&quot;&gt;X1&lt;/font&gt;" style="text;html=1;strokeColor=none;fillColor=none;align=center;verticalAlign=middle;whiteSpace=wrap;rounded=0;" parent="1" vertex="1">
                    <mxGeometry x="360" y="1810" width="60" height="30" as="geometry"/>
                </mxCell>
                <mxCell id="551" value="&lt;font data-font-src=&quot;https://fonts.googleapis.com/css?family=%E5%AE%8B%E4%BD%93&quot; style=&quot;font-size: 15px&quot; face=&quot;Times New Roman&quot;&gt;Y1&lt;/font&gt;" style="text;html=1;strokeColor=none;fillColor=none;align=center;verticalAlign=middle;whiteSpace=wrap;rounded=0;" parent="1" vertex="1">
                    <mxGeometry x="420" y="1810" width="60" height="30" as="geometry"/>
                </mxCell>
                <mxCell id="552" value="&lt;font data-font-src=&quot;https://fonts.googleapis.com/css?family=%E5%AE%8B%E4%BD%93&quot; style=&quot;font-size: 15px&quot; face=&quot;Times New Roman&quot;&gt;X2&lt;/font&gt;" style="text;html=1;strokeColor=none;fillColor=none;align=center;verticalAlign=middle;whiteSpace=wrap;rounded=0;" parent="1" vertex="1">
                    <mxGeometry x="480" y="1810" width="60" height="30" as="geometry"/>
                </mxCell>
                <mxCell id="553" value="&lt;font data-font-src=&quot;https://fonts.googleapis.com/css?family=%E5%AE%8B%E4%BD%93&quot; style=&quot;font-size: 15px&quot; face=&quot;Times New Roman&quot;&gt;Y2&lt;/font&gt;" style="text;html=1;strokeColor=none;fillColor=none;align=center;verticalAlign=middle;whiteSpace=wrap;rounded=0;" parent="1" vertex="1">
                    <mxGeometry x="540" y="1810" width="60" height="30" as="geometry"/>
                </mxCell>
                <mxCell id="554" value="&lt;font data-font-src=&quot;https://fonts.googleapis.com/css?family=%E5%AE%8B%E4%BD%93&quot; style=&quot;font-size: 15px&quot; face=&quot;Times New Roman&quot;&gt;1&lt;/font&gt;" style="text;html=1;strokeColor=none;fillColor=none;align=center;verticalAlign=middle;whiteSpace=wrap;rounded=0;" parent="1" vertex="1">
                    <mxGeometry x="330" y="1840" width="30" height="30" as="geometry"/>
                </mxCell>
                <mxCell id="555" value="&lt;font data-font-src=&quot;https://fonts.googleapis.com/css?family=%E5%AE%8B%E4%BD%93&quot; style=&quot;font-size: 15px&quot; face=&quot;Times New Roman&quot;&gt;2&lt;/font&gt;" style="text;html=1;strokeColor=none;fillColor=none;align=center;verticalAlign=middle;whiteSpace=wrap;rounded=0;" parent="1" vertex="1">
                    <mxGeometry x="330" y="1870" width="30" height="30" as="geometry"/>
                </mxCell>
                <mxCell id="556" value="&lt;font data-font-src=&quot;https://fonts.googleapis.com/css?family=%E5%AE%8B%E4%BD%93&quot; style=&quot;font-size: 15px&quot; face=&quot;Times New Roman&quot;&gt;3&lt;/font&gt;" style="text;html=1;strokeColor=none;fillColor=none;align=center;verticalAlign=middle;whiteSpace=wrap;rounded=0;" parent="1" vertex="1">
                    <mxGeometry x="330" y="1900" width="30" height="30" as="geometry"/>
                </mxCell>
                <mxCell id="561" value="&lt;font data-font-src=&quot;https://fonts.googleapis.com/css?family=%E5%AE%8B%E4%BD%93&quot; style=&quot;font-size: 15px&quot; face=&quot;Times New Roman&quot;&gt;...&lt;/font&gt;" style="text;html=1;strokeColor=none;fillColor=none;align=center;verticalAlign=middle;whiteSpace=wrap;rounded=0;" parent="1" vertex="1">
                    <mxGeometry x="330" y="1930" width="30" height="30" as="geometry"/>
                </mxCell>
                <mxCell id="562" value="&lt;p class=&quot;MsoNormal&quot;&gt;&lt;font style=&quot;font-size: 22px&quot; face=&quot;宋体&quot; data-font-src=&quot;https://fonts.googleapis.com/css?family=%E5%AE%8B%E4%BD%93&quot;&gt;标注序号栈&lt;/font&gt;&lt;/p&gt;" style="text;html=1;strokeColor=none;fillColor=none;align=center;verticalAlign=middle;whiteSpace=wrap;rounded=0;" parent="1" vertex="1">
                    <mxGeometry x="140" y="1930" width="130" height="30" as="geometry"/>
                </mxCell>
                <mxCell id="563" value="&lt;p class=&quot;MsoNormal&quot; style=&quot;font-size: 22px&quot;&gt;&lt;font face=&quot;宋体&quot; style=&quot;font-size: 22px&quot;&gt;商品位置&lt;/font&gt;&lt;/p&gt;&lt;p class=&quot;MsoNormal&quot; style=&quot;font-size: 22px&quot;&gt;&lt;font face=&quot;宋体&quot; style=&quot;font-size: 22px&quot;&gt;寄存器数组&lt;/font&gt;&lt;/p&gt;" style="text;html=1;strokeColor=none;fillColor=none;align=center;verticalAlign=middle;whiteSpace=wrap;rounded=0;" parent="1" vertex="1">
                    <mxGeometry x="600" y="1880" width="130" height="80" as="geometry"/>
                </mxCell>
                <mxCell id="564" value="&lt;font style=&quot;font-size: 18px&quot;&gt;adjust&lt;/font&gt;" style="text;html=1;align=center;verticalAlign=middle;resizable=0;points=[];autosize=1;strokeColor=none;fillColor=none;fontSize=22;fontFamily=Times New Roman;" parent="1" vertex="1">
                    <mxGeometry x="260" y="1880" width="60" height="30" as="geometry"/>
                </mxCell>
                <mxCell id="566" value="&lt;span style=&quot;font-size: 18px&quot;&gt;init&lt;/span&gt;" style="text;html=1;align=center;verticalAlign=middle;resizable=0;points=[];autosize=1;strokeColor=none;fillColor=none;fontSize=22;fontFamily=Times New Roman;" parent="1" vertex="1">
                    <mxGeometry x="270" y="1830" width="40" height="30" as="geometry"/>
                </mxCell>
                <mxCell id="568" value="&lt;font style=&quot;font-size: 18px&quot;&gt;stack_push&lt;/font&gt;" style="text;html=1;align=center;verticalAlign=middle;resizable=0;points=[];autosize=1;strokeColor=none;fillColor=none;fontSize=22;fontFamily=Times New Roman;" parent="1" vertex="1">
                    <mxGeometry x="105" y="1790" width="100" height="30" as="geometry"/>
                </mxCell>
                <mxCell id="675" value="&lt;font face=&quot;宋体&quot; data-font-src=&quot;https://fonts.googleapis.com/css?family=%E5%AE%8B%E4%BD%93&quot; style=&quot;font-size: 22px&quot;&gt;二值化图像&lt;/font&gt;" style="text;html=1;strokeColor=none;fillColor=none;align=center;verticalAlign=middle;whiteSpace=wrap;rounded=0;" parent="1" vertex="1">
                    <mxGeometry x="40" y="1440" width="120" height="30" as="geometry"/>
                </mxCell>
                <mxCell id="676" value="&lt;font face=&quot;宋体&quot; data-font-src=&quot;https://fonts.googleapis.com/css?family=%E5%AE%8B%E4%BD%93&quot; style=&quot;font-size: 22px&quot;&gt;已遍历区域&lt;/font&gt;" style="text;html=1;strokeColor=none;fillColor=none;align=center;verticalAlign=middle;whiteSpace=wrap;rounded=0;" parent="1" vertex="1">
                    <mxGeometry x="280" y="1515" width="120" height="30" as="geometry"/>
                </mxCell>
                <mxCell id="677" value="&lt;font face=&quot;宋体&quot; data-font-src=&quot;https://fonts.googleapis.com/css?family=%E5%AE%8B%E4%BD%93&quot; style=&quot;font-size: 22px&quot;&gt;未遍历区域&lt;/font&gt;" style="text;html=1;strokeColor=none;fillColor=none;align=center;verticalAlign=middle;whiteSpace=wrap;rounded=0;" parent="1" vertex="1">
                    <mxGeometry x="277.5" y="1700" width="125" height="30" as="geometry"/>
                </mxCell>
            </root>
        </mxGraphModel>
    </diagram>
</mxfile>